<?xml version="1.0" standalone="no"?><!DOCTYPE svg PUBLIC "-//W3C//DTD SVG 1.1//EN" "http://www.w3.org/Graphics/SVG/1.1/DTD/svg11.dtd"><svg t="1731764196832" class="icon" viewBox="0 0 1024 1024" version="1.1" xmlns="http://www.w3.org/2000/svg" p-id="7481" xmlns:xlink="http://www.w3.org/1999/xlink" width="200" height="200"><path d="M580.778667 307.541333c13.994667 8.192 13.994667 28.330667 0 36.864l-103.765334 63.146667a21.879467 21.879467 0 0 1-33.109333-18.773333V262.826667c0-16.725333 18.432-26.965333 33.109333-18.432l103.765334 63.146666z" p-id="7482" fill="#1296db"></path><path d="M695.808 102.4H327.850667c-49.834667 0-90.794667 40.96-90.794667 90.794667v637.269333c0 50.176 40.96 91.136 90.794667 91.136h367.957333c50.176 0 91.136-40.96 91.136-91.136V193.194667c0-49.834667-40.96-90.794667-91.136-90.794667z m-186.709333 741.376c-70.314667 0-127.658667-57.344-127.658667-127.658667s57.344-127.317333 127.658667-127.317333 127.317333 57.002667 127.317333 127.317333-57.002667 127.658667-127.317333 127.658667z m209.578666-379.562667c0 18.773333-15.36 34.133333-34.133333 34.133334H339.456c-18.773333 0-34.133333-15.36-34.133333-34.133334V204.8c0-18.773333 15.36-34.133333 34.133333-34.133333h345.088c18.773333 0 34.133333 15.36 34.133333 34.133333v259.413333z m-209.578666 192.853334c-32.768 0-59.392 26.624-59.392 59.050666 0 32.768 26.624 59.392 59.392 59.392s59.050667-26.624 59.050666-59.392c0-32.426667-26.282667-59.050667-59.050666-59.050666z" p-id="7483" fill="#1296db"></path><path d="M568.149333 716.117333c0 32.768-26.282667 59.392-59.050666 59.392s-59.392-26.624-59.392-59.392c0-32.426667 26.624-59.050667 59.392-59.050666s59.050667 26.624 59.050666 59.050666z" p-id="7484" fill="#1296db"></path><path d="M580.778667 344.405333l-103.765334 63.146667a21.879467 21.879467 0 0 1-33.109333-18.773333V262.826667c0-16.725333 18.432-26.965333 33.109333-18.432l103.765334 63.146666c13.994667 8.192 13.994667 28.330667 0 36.864z" p-id="7485" fill="#1296db"></path></svg>