<?xml version="1.0" standalone="no"?><!DOCTYPE svg PUBLIC "-//W3C//DTD SVG 1.1//EN" "http://www.w3.org/Graphics/SVG/1.1/DTD/svg11.dtd"><svg t="1731759933195" class="icon" viewBox="0 0 1024 1024" version="1.1" xmlns="http://www.w3.org/2000/svg" p-id="2571" xmlns:xlink="http://www.w3.org/1999/xlink" width="200" height="200"><path d="M356 180h-40c-35.3 0-64 28.7-64 64v536c0 35.3 28.7 64 64 64h40c35.3 0 64-28.7 64-64V244c0-35.3-28.7-64-64-64zM708 180h-40c-35.3 0-64 28.7-64 64v536c0 35.3 28.7 64 64 64h40c35.3 0 64-28.7 64-64V244c0-35.3-28.7-64-64-64z" p-id="2572" fill="#ffffff"></path></svg>